<svg xmlns="http://www.w3.org/2000/svg" width="64" height="64" viewBox="0 0 64 64"><g transform="translate(8812 15493)"><g transform="translate(-8888.657 -16025.009)"><path d="M79.857,550.357v11.775c0,4.271,5.87,6.079,13.851,6.985l2.967-11.071C87.222,557.143,79.857,555.286,79.857,550.357Z" fill="#4ed3fe"/><path d="M123.374,559.693l-2.911,11c9.537.743,16.994,2.319,16.994,6.965V565.885C137.457,562.033,131.472,560.486,123.374,559.693Z" fill="#4ed3fe"/><path d="M97.892,567.458l7.363,7.363a1,1,0,0,0,.966.258l10.057-2.7a1,1,0,0,0,.708-.707l2.694-10.057a1,1,0,0,0-.258-.966l-7.363-7.363a1,1,0,0,0-.966-.259l-10.058,2.7a1,1,0,0,0-.707.707l-2.695,10.058A1,1,0,0,0,97.892,567.458Z" fill="#3296fa"/><path d="M135.178,570.18l-.023.015-19.707,11.332a13.622,13.622,0,0,1-13.582,0L82.015,570.111a1.44,1.44,0,0,0-2.158,1.248v7.527a4.59,4.59,0,0,0,2.3,3.978L101.866,594.2a13.622,13.622,0,0,0,13.582,0l19.707-11.331a4.59,4.59,0,0,0,2.3-3.978V566.217A4.588,4.588,0,0,1,135.178,570.18Z" fill="#3296fa"/><path d="M82.136,557.837l.023-.015,19.707-11.331a13.624,13.624,0,0,1,13.583,0l19.85,11.416a1.44,1.44,0,0,0,2.158-1.248v-7.527a4.588,4.588,0,0,0-2.3-3.978l-19.707-11.332a13.622,13.622,0,0,0-13.582,0L82.159,545.154a4.588,4.588,0,0,0-2.3,3.978V561.8A4.588,4.588,0,0,1,82.136,557.837Z" fill="#3296fa"/></g><rect width="64" height="64" transform="translate(-8812 -15493)" fill="none"/></g></svg>